<svg xmlns="http://www.w3.org/2000/svg" xmlns:xlink="http://www.w3.org/1999/xlink" width="500" zoomAndPan="magnify" viewBox="0 0 375 374.999991" height="500" preserveAspectRatio="xMidYMid meet" version="1.0"><defs><g/><clipPath id="id1"><path d="M 37.804688 142.5 L 133.351562 142.5 L 133.351562 238.046875 L 37.804688 238.046875 Z M 37.804688 142.5 " clip-rule="nonzero"/></clipPath></defs><g clip-path="url(#id1)"><path fill="#000000" d="M 85.578125 238.046875 C 72.824219 238.046875 60.8125 233.085938 51.800781 224.050781 C 42.769531 215.039062 37.804688 203.03125 37.804688 190.273438 C 37.804688 177.519531 42.769531 165.507812 51.800781 156.496094 C 60.8125 147.464844 72.824219 142.5 85.578125 142.5 C 98.332031 142.5 110.34375 147.464844 119.355469 156.496094 C 128.386719 165.527344 133.351562 177.519531 133.351562 190.273438 C 133.351562 203.03125 128.386719 215.039062 119.355469 224.050781 C 110.34375 233.085938 98.332031 238.046875 85.578125 238.046875 Z M 85.578125 145.363281 C 73.585938 145.363281 62.300781 150.042969 53.824219 158.519531 C 45.34375 167 40.667969 178.28125 40.667969 190.273438 C 40.667969 202.265625 45.34375 213.550781 53.824219 222.027344 C 62.300781 230.507812 73.585938 235.183594 85.578125 235.183594 C 97.570312 235.183594 108.855469 230.507812 117.332031 222.027344 C 125.808594 213.550781 130.488281 202.265625 130.488281 190.273438 C 130.488281 178.28125 125.808594 167 117.332031 158.519531 C 108.855469 150.042969 97.570312 145.363281 85.578125 145.363281 Z M 85.578125 145.363281 " fill-opacity="1" fill-rule="nonzero"/></g><path stroke-linecap="round" transform="matrix(2.246206, 0, 0, 2.25, 30.02069, 188.437488)" fill="none" stroke-linejoin="miter" d="M 0.500329 0.00000549958 L 48.917047 0.00000549958 " stroke="#000000" stroke-width="1" stroke-opacity="1" stroke-miterlimit="4"/><g fill="#000000" fill-opacity="1"><g transform="translate(141.224049, 203.902668)"><g><path d="M 12.5 -6.09375 C 12.5 -4.757812 12.335938 -3.601562 12.015625 -2.625 C 11.691406 -1.644531 11.144531 -0.890625 10.375 -0.359375 C 9.613281 0.171875 8.550781 0.4375 7.1875 0.4375 C 5.945312 0.4375 4.878906 0.257812 3.984375 -0.09375 C 3.085938 -0.445312 2.554688 -0.691406 2.390625 -0.828125 L 2.828125 -2.703125 C 3.304688 -2.484375 3.859375 -2.203125 4.484375 -1.859375 C 5.117188 -1.515625 5.988281 -1.34375 7.09375 -1.34375 C 8.46875 -1.34375 9.425781 -1.742188 9.96875 -2.546875 C 10.519531 -3.347656 10.796875 -4.734375 10.796875 -6.703125 L 10.796875 -31.46875 L 12.5 -31.46875 Z M 12.5 -6.09375 "/></g></g></g><g fill="#000000" fill-opacity="1"><g transform="translate(157.545082, 203.902668)"><g><path d="M 25.640625 -9.75 C 25.640625 -7.46875 25.253906 -5.570312 24.484375 -4.0625 C 23.710938 -2.5625 22.554688 -1.4375 21.015625 -0.6875 C 19.472656 0.0625 17.53125 0.4375 15.1875 0.4375 C 12.8125 0.4375 10.851562 0.0507812 9.3125 -0.71875 C 7.78125 -1.5 6.640625 -2.691406 5.890625 -4.296875 C 5.148438 -5.898438 4.78125 -7.9375 4.78125 -10.40625 L 4.78125 -31.46875 L 6.65625 -31.46875 L 6.65625 -9.65625 C 6.65625 -6.914062 7.351562 -4.820312 8.75 -3.375 C 10.15625 -1.9375 12.300781 -1.21875 15.1875 -1.21875 C 17.132812 -1.21875 18.753906 -1.53125 20.046875 -2.15625 C 21.347656 -2.789062 22.320312 -3.734375 22.96875 -4.984375 C 23.613281 -6.242188 23.9375 -7.800781 23.9375 -9.65625 L 23.9375 -31.46875 L 25.640625 -31.46875 Z M 25.640625 -9.75 "/></g></g></g><g fill="#000000" fill-opacity="1"><g transform="translate(187.009981, 203.902668)"><g><path d="M 2.390625 0 L 13.9375 -31.46875 L 16.328125 -31.46875 L 27.8125 0 L 25.9375 0 L 22.328125 -9.921875 L 7.921875 -9.921875 L 4.21875 0 Z M 8.53125 -11.796875 L 21.671875 -11.796875 L 15.15625 -29.640625 Z M 8.53125 -11.796875 "/></g></g></g><g fill="#000000" fill-opacity="1"><g transform="translate(217.214769, 203.902668)"><g><path d="M 25.125 -31.46875 L 26.8125 -31.46875 L 26.8125 0 L 25.328125 0 L 6.484375 -27.984375 L 6.484375 0 L 4.78125 0 L 4.78125 -31.46875 L 6.1875 -31.46875 L 25.125 -3.390625 Z M 25.125 -31.46875 "/></g></g></g><g fill="#000000" fill-opacity="1"><g transform="translate(248.812284, 203.902668)"><g><path d="M 2.609375 0 L 2.609375 -3.359375 L 5.25 -3.359375 L 5.25 0 Z M 2.609375 0 "/></g></g></g><g fill="#000000" fill-opacity="1"><g transform="translate(256.6899, 203.902668)"><g><path d="M 4.78125 -31.46875 C 4.8125 -31.46875 4.972656 -31.460938 5.265625 -31.453125 C 5.566406 -31.453125 5.960938 -31.453125 6.453125 -31.453125 C 6.941406 -31.453125 7.492188 -31.445312 8.109375 -31.4375 C 8.722656 -31.425781 9.359375 -31.421875 10.015625 -31.421875 C 13.898438 -31.410156 17.046875 -30.847656 19.453125 -29.734375 C 21.867188 -28.617188 23.632812 -26.921875 24.75 -24.640625 C 25.863281 -22.359375 26.421875 -19.46875 26.421875 -15.96875 C 26.421875 -12.269531 25.804688 -9.242188 24.578125 -6.890625 C 23.359375 -4.546875 21.488281 -2.8125 18.96875 -1.6875 C 16.445312 -0.5625 13.257812 0 9.40625 0 L 4.78125 0 Z M 6.65625 -29.6875 L 6.65625 -1.78125 L 9.265625 -1.78125 C 12.660156 -1.78125 15.492188 -2.234375 17.765625 -3.140625 C 20.035156 -4.046875 21.738281 -5.523438 22.875 -7.578125 C 24.019531 -9.640625 24.59375 -12.378906 24.59375 -15.796875 C 24.59375 -19.410156 24.003906 -22.222656 22.828125 -24.234375 C 21.648438 -26.242188 19.941406 -27.65625 17.703125 -28.46875 C 15.460938 -29.28125 12.738281 -29.6875 9.53125 -29.6875 Z M 6.65625 -29.6875 "/></g></g></g><g fill="#000000" fill-opacity="1"><g transform="translate(285.719573, 203.902668)"><g><path d="M 4.78125 0 L 4.78125 -31.46875 L 22.859375 -31.46875 L 22.859375 -29.734375 L 6.484375 -29.734375 L 6.484375 -16.796875 L 21.71875 -16.796875 L 21.71875 -15.015625 L 6.484375 -15.015625 L 6.484375 -1.828125 L 23.46875 -1.78125 L 23.46875 0 Z M 4.78125 0 "/></g></g></g><g fill="#000000" fill-opacity="1"><g transform="translate(312.116115, 203.902668)"><g><path d="M 26.296875 -31.46875 L 14.859375 0 L 12.34375 0 L 1.203125 -31.46875 L 3.0625 -31.46875 L 13.625 -1.78125 L 24.46875 -31.46875 Z M 26.296875 -31.46875 "/></g></g></g></svg>